<?xml version="1.0" standalone="no"?>
 <!DOCTYPE svg PUBLIC "-//W3C//DTD SVG 1.1//EN" 
 "http://www.w3.org/Graphics/SVG/1.1/DTD/svg11.dtd"> 
<svg
  xmlns:svg="http://www.w3.org/2000/svg"
  xmlns="http://www.w3.org/2000/svg"
  xmlns:xlink="http://www.w3.org/1999/xlink"
  version="1.1"
  width="299.9994mm" height="450.0118mm" viewBox="0.0000 0.0000 299.9994 450.0118">
<title>SVG Image created as bally-compatible 2700x4492-Edge_Cuts.svg date 2024/01/08 23:59:07 </title>
  <desc>Image generated by PCBNEW </desc>
<g style="fill:#000000; fill-opacity:1.0000;stroke:#000000; stroke-opacity:1.0000;
stroke-linecap:round; stroke-linejoin:round;"
 transform="translate(0 0) scale(1 1)">
</g>
<g style="fill:#000000; fill-opacity:0.0; 
stroke:#000000; stroke-width:0.0000; stroke-opacity:1; 
stroke-linecap:round; stroke-linejoin:round;">
</g>
<g style="fill:#000000; fill-opacity:0.0; 
stroke:#000000; stroke-width:0.0010; stroke-opacity:1; 
stroke-linecap:round; stroke-linejoin:round;">
<circle cx="162.9502" cy="5.0348" r="0.9300" /> 
<circle cx="266.9992" cy="90.8348" r="0.9300" /> 
<circle cx="57.3982" cy="90.8348" r="0.9300" /> 
<circle cx="5.3492" cy="30.5348" r="0.9300" /> 
<circle cx="162.9502" cy="90.8348" r="0.9300" /> 
<circle cx="5.3492" cy="90.8348" r="0.9300" /> 
<circle cx="109.3982" cy="90.8348" r="0.9300" /> 
<circle cx="5.3492" cy="5.0348" r="0.9300" /> 
<circle cx="57.3982" cy="5.0348" r="0.9300" /> 
<circle cx="266.9992" cy="30.5348" r="0.9300" /> 
<circle cx="109.3982" cy="5.0348" r="0.9300" /> 
<circle cx="266.9992" cy="5.0348" r="0.9300" /> 
<circle cx="214.9502" cy="90.8348" r="0.9300" /> 
<circle cx="214.9502" cy="5.0348" r="0.9300" /> 
<path d="M217.2410 385.0349
L216.1010 387.0094
" />
<path d="M265.0355 411.6749
L267.0100 412.8149
" />
<path d="M267.0100 408.2549
L265.0355 409.3949
" />
<path d="M265.0355 386.1749
L265.0355 383.8949
" />
<path d="M213.8210 387.0094
L216.1010 387.0094
" />
<path d="M3.3855 411.6749
L3.3855 409.3949
" />
<path d="M7.3346 386.1749
L5.3600 387.3149
" />
<path d="M268.9846 386.1749
L268.9846 383.8949
" />
<circle cx="162.9502" cy="375.8348" r="0.9300" /> 
<path d="M5.3600 408.2549
L3.3855 409.3949
" />
<path d="M108.2690 387.0094
L110.5490 387.0094
" />
<path d="M164.1010 387.0094
L165.2410 385.0349
" />
<circle cx="5.3492" cy="375.8348" r="0.9300" /> 
<path d="M267.0100 382.7549
L265.0355 383.8949
" />
<circle cx="214.9502" cy="375.8348" r="0.9300" /> 
<path d="M164.1010 383.0604
L161.8210 383.0604
" />
<path d="M265.0355 386.1749
L267.0100 387.3149
" />
<path d="M190.1010 408.5604
L187.8210 408.5604
" />
<path d="M7.3346 386.1749
L7.3346 383.8949
" />
<path d="M108.2690 383.0604
L107.1290 385.0349
" />
<path d="M186.6810 410.5349
L187.8210 412.5094
" />
<path d="M268.9846 411.6749
L268.9846 409.3949
" />
<circle cx="5.3600" cy="445.1349" r="0.9300" /> 
<circle cx="214.9610" cy="419.6349" r="0.9300" /> 
<path d="M267.0100 382.7549
L268.9846 383.8949
" />
<path d="M160.6810 385.0349
L161.8210 387.0094
" />
<circle cx="109.3982" cy="375.8348" r="0.9300" /> 
<path d="M268.9846 386.1749
L267.0100 387.3149
" />
<circle cx="266.9992" cy="375.8348" r="0.9300" /> 
<path d="M213.8210 383.0604
L216.1010 383.0604
" />
<path d="M56.2690 387.0094
L58.5490 387.0094
" />
<path d="M59.6890 385.0349
L58.5490 383.0604
" />
<path d="M5.3600 382.7549
L7.3346 383.8949
" />
<path d="M82.2690 412.5094
L84.5490 412.5094
" />
<path d="M164.1010 387.0094
L161.8210 387.0094
" />
<path d="M190.1010 412.5094
L191.2410 410.5349
" />
<path d="M7.3346 411.6749
L7.3346 409.3949
" />
<path d="M108.2690 383.0604
L110.5490 383.0604
" />
<path d="M59.6890 385.0349
L58.5490 387.0094
" />
<path d="M265.0355 411.6749
L265.0355 409.3949
" />
<path d="M190.1010 412.5094
L187.8210 412.5094
" />
<circle cx="109.4090" cy="419.6349" r="0.9300" /> 
<circle cx="267.0100" cy="445.1349" r="0.9300" /> 
<circle cx="162.9610" cy="419.6349" r="0.9300" /> 
<circle cx="188.9610" cy="445.1349" r="0.9300" /> 
<path d="M85.6890 410.5349
L84.5490 408.5604
" />
<circle cx="57.3982" cy="375.8348" r="0.9300" /> 
<circle cx="267.0100" cy="419.6349" r="0.9300" /> 
<circle cx="5.3600" cy="419.6349" r="0.9300" /> 
<circle cx="57.4090" cy="419.6349" r="0.9300" /> 
<path d="M85.6890 410.5349
L84.5490 412.5094
" />
<circle cx="83.4090" cy="445.1349" r="0.9300" /> 
<path d="M267.0100 408.2549
L268.9846 409.3949
" />
<path d="M213.8210 387.0094
L212.6810 385.0349
" />
<path d="M268.9737 316.6748
L268.9737 314.3948
" />
<path d="M266.9992 287.7548
L265.0247 288.8948
" />
<path d="M213.8210 383.0604
L212.6810 385.0349
" />
<path d="M5.3600 382.7549
L3.3855 383.8949
" />
<path d="M3.3855 411.6749
L5.3600 412.8149
" />
<path d="M56.2690 387.0094
L55.1290 385.0349
" />
<path d="M265.0247 291.1748
L265.0247 288.8948
" />
<path d="M3.3747 316.6748
L3.3747 314.3948
" />
<path d="M164.0902 292.0093
L165.2302 290.0348
" />
<path d="M190.0902 317.5093
L191.2302 315.5348
" />
<path d="M3.3855 386.1749
L3.3855 383.8949
" />
<path d="M108.2582 288.0602
L107.1182 290.0348
" />
<path d="M108.2582 292.0093
L110.5382 292.0093
" />
<path d="M7.3237 291.1748
L5.3492 292.3148
" />
<path d="M59.6782 290.0348
L58.5382 292.0093
" />
<path d="M268.9737 291.1748
L266.9992 292.3148
" />
<path d="M56.2690 383.0604
L55.1290 385.0349
" />
<path d="M85.6782 315.5348
L84.5382 313.5602
" />
<path d="M7.3237 291.1748
L7.3237 288.8948
" />
<path d="M82.2690 408.5604
L81.1290 410.5349
" />
<path d="M5.3492 287.7548
L7.3237 288.8948
" />
<path d="M266.9992 287.7548
L268.9737 288.8948
" />
<path d="M7.3237 316.6748
L7.3237 314.3948
" />
<path d="M3.3855 386.1749
L5.3600 387.3149
" />
<path d="M186.6702 315.5348
L187.8102 317.5093
" />
<path d="M59.6782 290.0348
L58.5382 288.0602
" />
<path d="M265.0247 291.1748
L266.9992 292.3148
" />
<path d="M190.0902 317.5093
L187.8102 317.5093
" />
<path d="M7.3350 409.4229
L7.3350 411.6469
" />
<path d="M82.2690 412.5094
L81.1290 410.5349
" />
<path d="M108.2582 288.0602
L110.5382 288.0602
" />
<path d="M164.0902 288.0602
L161.8102 288.0602
" />
<path d="M217.2410 385.0349
L216.1010 383.0604
" />
<path d="M213.8102 292.0093
L216.0902 292.0093
" />
<path d="M82.2690 408.5604
L84.5490 408.5604
" />
<path d="M111.6890 385.0349
L110.5490 383.0604
" />
<path d="M5.3600 408.2549
L7.3346 409.3949
" />
<path d="M268.9737 291.1748
L268.9737 288.8948
" />
<path d="M108.2690 387.0094
L107.1290 385.0349
" />
<path d="M7.3346 411.6749
L5.3600 412.8149
" />
<path d="M160.6702 290.0348
L161.8102 292.0093
" />
<path d="M82.2582 317.5093
L84.5382 317.5093
" />
<path d="M85.6782 315.5348
L84.5382 317.5093
" />
<path d="M164.0902 292.0093
L161.8102 292.0093
" />
<path d="M265.0247 316.6748
L266.9992 317.8148
" />
<path d="M5.3492 313.2548
L3.3747 314.3948
" />
<path d="M213.8102 288.0602
L216.0902 288.0602
" />
<path d="M217.2302 290.0348
L216.0902 292.0093
" />
<path d="M56.2582 292.0093
L58.5382 292.0093
" />
<path d="M265.0247 316.6748
L265.0247 314.3948
" />
<path d="M160.6810 385.0349
L161.8210 383.0604
" />
<path d="M268.9846 411.6749
L267.0100 412.8149
" />
<path d="M266.9992 313.2548
L265.0247 314.3948
" />
<path d="M7.3350 409.4229
L7.3350 411.6469
" />
<path d="M164.1010 383.0604
L165.2410 385.0349
" />
<path d="M190.1010 408.5604
L191.2410 410.5349
" />
<path d="M186.6810 410.5349
L187.8210 408.5604
" />
<path d="M111.6890 385.0349
L110.5490 387.0094
" />
<path d="M56.2690 383.0604
L58.5490 383.0604
" />
<path d="M190.0902 313.5602
L187.8102 313.5602
" />
<path d="M56.2582 288.0602
L55.1182 290.0348
" />
<path d="M268.9738 196.1748
L266.9992 197.3148
" />
<path d="M5.3492 278.5548
L3.3747 279.6948
" />
<path d="M190.0902 313.5602
L191.2302 315.5348
" />
<path d="M5.3492 218.2548
L3.3747 219.3948
" />
<path d="M7.3237 316.6748
L5.3492 317.8148
" />
<path d="M5.3492 313.2548
L7.3237 314.3948
" />
<path d="M108.2582 197.0093
L110.5382 197.0093
" />
<path d="M164.0902 197.0093
L165.2302 195.0348
" />
<path d="M59.6782 195.0348
L58.5382 193.0603
" />
<path d="M3.3747 316.6748
L5.3492 317.8148
" />
<path d="M3.3747 291.1748
L3.3747 288.8948
" />
<path d="M111.6782 290.0348
L110.5382 288.0602
" />
<path d="M213.8102 292.0093
L212.6702 290.0348
" />
<path d="M266.9992 192.7548
L265.0247 193.8948
" />
<path d="M3.3747 291.1748
L5.3492 292.3148
" />
<path d="M266.9992 313.2548
L268.9737 314.3948
" />
<path d="M82.2582 313.5602
L81.1182 315.5348
" />
<path d="M56.2582 278.8603
L58.5382 278.8603
" />
<path d="M108.2582 282.8093
L107.1182 280.8348
" />
<path d="M7.3238 196.1748
L5.3492 197.3148
" />
<path d="M5.3492 278.5548
L7.3238 279.6948
" />
<path d="M213.8102 278.8603
L216.0902 278.8603
" />
<path d="M165.2302 280.8348
L164.0902 278.8603
" />
<path d="M3.3747 221.6748
L3.3747 219.3948
" />
<path d="M213.8102 282.8093
L212.6702 280.8348
" />
<path d="M160.6702 195.0348
L161.8102 197.0093
" />
<path d="M213.8102 288.0602
L212.6702 290.0348
" />
<path d="M268.9738 196.1748
L268.9738 193.8948
" />
<path d="M213.8102 193.0603
L216.0902 193.0603
" />
<path d="M213.8102 197.0093
L216.0902 197.0093
" />
<path d="M7.3242 314.4228
L7.3242 316.6468
" />
<path d="M217.2302 195.0348
L216.0902 197.0093
" />
<path d="M59.6782 280.8348
L58.5382 278.8603
" />
<path d="M213.8102 282.8093
L216.0902 282.8093
" />
<path d="M268.9737 316.6748
L266.9992 317.8148
" />
<path d="M164.0902 288.0602
L165.2302 290.0348
" />
<path d="M111.6782 280.8348
L110.5382 278.8603
" />
<path d="M82.2582 317.5093
L81.1182 315.5348
" />
<path d="M217.2302 290.0348
L216.0902 288.0602
" />
<path d="M108.2582 193.0603
L110.5382 193.0603
" />
<path d="M111.6782 290.0348
L110.5382 292.0093
" />
<path d="M268.9738 281.9748
L268.9738 279.6948
" />
<path d="M56.2582 292.0093
L55.1182 290.0348
" />
<path d="M7.3242 314.4228
L7.3242 316.6468
" />
<path d="M186.6702 315.5348
L187.8102 313.5602
" />
<path d="M56.2582 288.0602
L58.5382 288.0602
" />
<path d="M108.2582 292.0093
L107.1182 290.0348
" />
<path d="M5.3492 287.7548
L3.3747 288.8948
" />
<path d="M160.6702 290.0348
L161.8102 288.0602
" />
<path d="M266.9992 192.7548
L268.9738 193.8948
" />
<path d="M161.8102 282.8093
L164.0902 282.8093
" />
<path d="M56.2582 278.8603
L55.1182 280.8348
" />
<path d="M161.8102 282.8093
L160.6702 280.8348
" />
<path d="M56.2582 197.0093
L58.5382 197.0093
" />
<path d="M82.2582 313.5602
L84.5382 313.5602
" />
<path d="M164.0902 193.0603
L165.2302 195.0348
" />
<path d="M160.6702 100.0348
L161.8102 102.0093
" />
<path d="M3.3747 221.6748
L5.3492 222.8148
" />
<path d="M111.6782 195.0348
L110.5382 197.0093
" />
<path d="M111.6782 195.0348
L110.5382 193.0603
" />
<path d="M56.2582 282.8093
L55.1182 280.8348
" />
<path d="M164.0902 193.0603
L161.8102 193.0603
" />
<path d="M5.3492 218.2548
L7.3238 219.3948
" />
<path d="M265.0247 281.9748
L265.0247 279.6948
" />
<path d="M213.8102 197.0093
L212.6702 195.0348
" />
<path d="M161.8102 278.8603
L160.6702 280.8348
" />
<path d="M3.3747 281.9748
L5.3492 283.1148
" />
<path d="M265.0247 196.1748
L266.9992 197.3148
" />
<path d="M161.8102 278.8603
L164.0902 278.8603
" />
<path d="M265.0247 221.6748
L266.9992 222.8148
" />
<path d="M217.2302 280.8348
L216.0902 282.8093
" />
<path d="M266.9992 218.2548
L265.0247 219.3948
" />
<path d="M3.3747 281.9748
L3.3747 279.6948
" />
<path d="M213.8102 278.8603
L212.6702 280.8348
" />
<path d="M3.3747 196.1748
L3.3747 193.8948
" />
<path d="M265.0247 196.1748
L265.0247 193.8948
" />
<path d="M59.6782 195.0348
L58.5382 197.0093
" />
<path d="M111.6782 280.8348
L110.5382 282.8093
" />
<path d="M56.2582 193.0603
L58.5382 193.0603
" />
<path d="M56.2582 193.0603
L55.1182 195.0348
" />
<path d="M56.2582 282.8093
L58.5382 282.8093
" />
<path d="M217.2302 280.8348
L216.0902 278.8603
" />
<path d="M7.3238 196.1748
L7.3238 193.8948
" />
<path d="M268.9738 221.6748
L268.9738 219.3948
" />
<path d="M165.2302 280.8348
L164.0902 282.8093
" />
<path d="M59.6782 280.8348
L58.5382 282.8093
" />
<path d="M108.2582 282.8093
L110.5382 282.8093
" />
<path d="M7.3238 281.9748
L5.3492 283.1148
" />
<path d="M5.3492 192.7548
L3.3747 193.8948
" />
<path d="M268.9738 221.6748
L266.9992 222.8148
" />
<path d="M7.3238 221.6748
L5.3492 222.8148
" />
<path d="M108.2582 278.8603
L110.5382 278.8603
" />
<path d="M266.9992 218.2548
L268.9738 219.3948
" />
<path d="M108.2582 197.0093
L107.1182 195.0348
" />
<path d="M213.8102 193.0603
L212.6702 195.0348
" />
<path d="M164.0902 197.0093
L161.8102 197.0093
" />
<path d="M108.2582 193.0603
L107.1182 195.0348
" />
<path d="M5.3492 192.7548
L7.3238 193.8948
" />
<path d="M268.9738 281.9748
L266.9992 283.1148
" />
<path d="M266.9992 278.5548
L265.0247 279.6948
" />
<path d="M217.2302 195.0348
L216.0902 193.0603
" />
<path d="M266.9992 278.5548
L268.9738 279.6948
" />
<path d="M160.6702 195.0348
L161.8102 193.0603
" />
<path d="M265.0247 281.9748
L266.9992 283.1148
" />
<path d="M56.2582 197.0093
L55.1182 195.0348
" />
<path d="M3.3747 196.1748
L5.3492 197.3148
" />
<path d="M108.2582 278.8603
L107.1182 280.8348
" />
<path d="M7.3238 281.9748
L7.3238 279.6948
" />
<path d="M5.3492 123.2548
L3.3747 124.3948
" />
<path d="M265.0247 126.6748
L266.9992 127.8148
" />
<path d="M108.2582 102.0093
L110.5382 102.0093
" />
<path d="M59.6782 100.0348
L58.5382 98.0603
" />
<path d="M56.2582 102.0093
L58.5382 102.0093
" />
<path d="M213.8102 187.8093
L212.6702 185.8348
" />
<path d="M213.8102 183.8603
L212.6702 185.8348
" />
<path d="M7.3238 101.1748
L5.3492 102.3148
" />
<path d="M268.9738 101.1748
L266.9992 102.3148
" />
<path d="M3.3747 186.9748
L5.3492 188.1148
" />
<path d="M265.0247 186.9748
L265.0247 184.6948
" />
<path d="M111.6782 185.8348
L110.5382 187.8093
" />
<path d="M161.8102 187.8093
L164.0902 187.8093
" />
<path d="M268.9738 186.9748
L268.9738 184.6948
" />
<path d="M268.9738 126.6748
L266.9992 127.8148
" />
<path d="M266.9992 97.7548
L265.0247 98.8948
" />
<path d="M268.9738 126.6748
L268.9738 124.3948
" />
<path d="M161.8102 187.8093
L160.6702 185.8348
" />
<path d="M3.3747 126.6748
L3.3747 124.3948
" />
<path d="M265.0247 101.1748
L265.0247 98.8948
" />
<path d="M5.3492 183.5548
L7.3238 184.6948
" />
<path d="M111.6782 185.8348
L110.5382 183.8603
" />
<path d="M108.2582 187.8093
L107.1182 185.8348
" />
<path d="M108.2582 98.0603
L110.5382 98.0603
" />
<path d="M56.2582 183.8603
L55.1182 185.8348
" />
<path d="M5.3492 183.5548
L3.3747 184.6948
" />
<path d="M5.3492 97.7548
L7.3238 98.8948
" />
<path d="M7.3238 186.9748
L7.3238 184.6948
" />
<path d="M213.8102 183.8603
L216.0902 183.8603
" />
<path d="M266.9992 123.2548
L265.0247 124.3948
" />
<path d="M59.6782 185.8348
L58.5382 187.8093
" />
<path d="M266.9992 97.7548
L268.9738 98.8948
" />
<path d="M7.3238 101.1748
L7.3238 98.8948
" />
<path d="M165.2302 185.8348
L164.0902 183.8603
" />
<path d="M265.0247 101.1748
L266.9992 102.3148
" />
<path d="M164.0902 102.0093
L165.2302 100.0348
" />
<path d="M59.6782 185.8348
L58.5382 183.8603
" />
<path d="M56.2582 183.8603
L58.5382 183.8603
" />
<path d="M213.8102 102.0093
L216.0902 102.0093
" />
<path d="M217.2302 100.0348
L216.0902 98.0603
" />
<path d="M164.0902 98.0603
L161.8102 98.0603
" />
<path d="M164.0902 102.0093
L161.8102 102.0093
" />
<path d="M108.2582 98.0603
L107.1182 100.0348
" />
<path d="M165.2302 185.8348
L164.0902 187.8093
" />
<path d="M164.0902 98.0603
L165.2302 100.0348
" />
<path d="M217.2302 100.0348
L216.0902 102.0093
" />
<path d="M268.9738 101.1748
L268.9738 98.8948
" />
<path d="M161.8102 183.8603
L160.6702 185.8348
" />
<path d="M213.8102 187.8093
L216.0902 187.8093
" />
<path d="M59.6782 100.0348
L58.5382 102.0093
" />
<path d="M268.9738 186.9748
L266.9992 188.1148
" />
<path d="M213.8102 98.0603
L216.0902 98.0603
" />
<path d="M266.9992 183.5548
L268.9738 184.6948
" />
<path d="M3.3747 126.6748
L5.3492 127.8148
" />
<path d="M217.2302 185.8348
L216.0902 187.8093
" />
<path d="M3.3747 186.9748
L3.3747 184.6948
" />
<path d="M217.2302 185.8348
L216.0902 183.8603
" />
<path d="M5.3492 123.2548
L7.3238 124.3948
" />
<path d="M213.8102 98.0603
L212.6702 100.0348
" />
<path d="M3.3747 101.1748
L3.3747 98.8948
" />
<path d="M3.3747 101.1748
L5.3492 102.3148
" />
<path d="M111.6782 100.0348
L110.5382 98.0603
" />
<path d="M7.3238 126.6748
L5.3492 127.8148
" />
<path d="M56.2582 187.8093
L58.5382 187.8093
" />
<path d="M265.0247 186.9748
L266.9992 188.1148
" />
<path d="M213.8102 102.0093
L212.6702 100.0348
" />
<path d="M108.2582 102.0093
L107.1182 100.0348
" />
<path d="M266.9992 183.5548
L265.0247 184.6948
" />
<path d="M7.3238 186.9748
L5.3492 188.1148
" />
<path d="M56.2582 102.0093
L55.1182 100.0348
" />
<path d="M111.6782 100.0348
L110.5382 102.0093
" />
<path d="M56.2582 187.8093
L55.1182 185.8348
" />
<path d="M56.2582 98.0603
L58.5382 98.0603
" />
<path d="M5.3492 97.7548
L3.3747 98.8948
" />
<path d="M160.6702 100.0348
L161.8102 98.0603
" />
<path d="M56.2582 98.0603
L55.1182 100.0348
" />
<path d="M108.2582 183.8603
L107.1182 185.8348
" />
<path d="M161.8102 183.8603
L164.0902 183.8603
" />
<path d="M266.9992 123.2548
L268.9738 124.3948
" />
<path d="M108.2582 183.8603
L110.5382 183.8603
" />
<path d="M108.2582 187.8093
L110.5382 187.8093
" />
<circle cx="143.1850" cy="431.6349" r="0.9300" /> 
<path d="M33.3242 277.6348 A1.3999 1.3999 0.0 0 0 31.9242 276.2348" />
<path d="M131.1742 304.7848 A0.7500 0.7500 0.0 0 0 130.4242 304.0348" />
<path d="M130.6873 401.5912 A0.7498 0.7498 0.0 0 0 131.1850 400.8849" />
<path d="M265.0242 221.6738
L265.0242 274.4336
" />
<path d="M141.1742 286.5348
L141.1742 285.9348
" />
<path d="M190.4242 280.1348 A2.8830 2.8830 0.0 0 0 192.6208 282.9348" />
<path d="M130.6850 382.0349
L128.4350 382.0349
" />
<path d="M7.3242 11.4348
L7.3242 84.4348
" />
<path d="M1.1850 418.0349
L1.1850 446.6349
" />
<path d="M268.1850 415.0349 A3.0000 3.0000 0.0 0 0 271.1850 412.0349" />
<path d="M141.1850 381.5349
L141.1850 380.9349
" />
<path d="M1.1742 92.4348
L1.1742 3.4348
" />
<path d="M141.6742 190.4348
L268.1742 190.4348
" />
<circle cx="143.1850" cy="418.6349" r="0.9300" /> 
<path d="M1.1850 446.6349 A3.0000 3.0000 0.0 0 0 4.1850 449.6349" />
<path d="M4.1742 95.4348
L268.1742 95.4348
" />
<path d="M1.1742 282.4348
L1.1742 193.4348
" />
<path d="M233.2242 277.6348 A1.4001 1.4001 0.0 0 0 231.8242 276.2348" />
<path d="M35.5208 282.9348
L36.9276 282.9348
" />
<path d="M90.1850 411.4349 A1.5000 1.5000 0.0 0 0 91.6850 412.9349" />
<path d="M271.1742 3.4348 A3.0000 3.0000 0.0 0 0 268.1742 0.4348" />
<path d="M271.1742 127.0348
L271.1742 98.4348
" />
<path d="M1.1742 377.4348 A3.0000 3.0000 0.0 0 0 4.1742 380.4348" />
<path d="M197.6242 276.2348 A1.4001 1.4001 0.0 0 0 196.2242 277.6348" />
<path d="M271.1742 193.4348 A3.0001 3.0001 0.0 0 0 268.1742 190.4348" />
<path d="M9.1242 104.6348
L263.2242 104.6348
" />
<path d="M143.9242 287.0348
L141.6742 287.0348
" />
<path d="M131.1742 285.9348 A0.5000 0.5000 0.0 0 0 130.6742 285.4348" />
<path d="M268.1742 190.4348 A2.9999 2.9999 0.0 0 0 271.1742 187.4348" />
<path d="M33.3242 280.1348 A2.8827 2.8827 0.0 0 0 35.5208 282.9348" />
<path d="M271.1742 32.0348
L271.1742 3.4348
" />
<path d="M4.1850 415.0349 A3.0000 3.0000 0.0 0 0 1.1850 418.0349" />
<path d="M79.7276 282.9348 A2.8830 2.8830 0.0 0 0 81.9242 280.1348" />
<path d="M263.2242 276.2348 A1.7999 1.7999 0.0 0 0 265.0242 274.4348" />
<path d="M190.4242 277.6348
L190.4242 280.1348
" />
<path d="M271.1742 98.4348 A3.0004 3.0004 0.0 0 0 268.1742 95.4348" />
<circle cx="79.0242" cy="100.7348" r="1.5000" /> 
<path d="M76.1242 280.1348 A2.8830 2.8830 0.0 0 0 78.3208 282.9348" />
<path d="M40.5242 276.2348 A1.4000 1.4000 0.0 0 0 39.1242 277.6348" />
<path d="M263.2242 86.2348
L9.1242 86.2348
" />
<path d="M265.0242 124.3958
L265.0242 106.4348
" />
<path d="M130.6764 306.5911 A0.7500 0.7500 0.0 0 0 131.1742 305.8848" />
<path d="M265.0242 11.4348 A1.8000 1.8000 0.0 0 0 263.2242 9.6348" />
<path d="M196.2242 280.1348
L196.2242 277.6348
" />
<path d="M126.6742 302.2848
L126.6742 288.7848
" />
<path d="M140.3212 313.6288 A1.1282 1.1282 0.0 0 0 141.1742 312.5348" />
<path d="M81.9242 195.7348 A2.8826 2.8826 0.0 0 0 79.7276 192.9348" />
<path d="M1.1742 377.4348
L1.1742 317.0348
" />
<path d="M189.0242 199.6348 A1.3999 1.3999 0.0 0 0 190.4242 198.2348" />
<path d="M145.6742 288.7848
L145.6742 302.2848
" />
<path d="M233.2242 280.1348 A2.8830 2.8830 0.0 0 0 235.4208 282.9348" />
<path d="M39.1242 198.2348 A1.4001 1.4001 0.0 0 0 40.5242 199.6348" />
<path d="M141.9350 399.0349 A0.7500 0.7500 0.0 0 0 141.1850 399.7849" />
<path d="M33.3242 198.2348
L33.3242 195.7348
" />
<path d="M39.1242 195.7348
L39.1242 198.2348
" />
<path d="M4.1742 0.4348 A3.0000 3.0000 0.0 0 0 1.1742 3.4348" />
<path d="M236.8276 282.9348 A2.8830 2.8830 0.0 0 0 239.0242 280.1348" />
<path d="M190.4242 198.2348
L190.4242 195.7348
" />
<path d="M83.3242 276.2348
L189.0242 276.2348
" />
<path d="M131.1742 285.9348
L131.1742 286.5348
" />
<path d="M143.9350 382.0349
L141.6850 382.0349
" />
<circle cx="236.1242" cy="185.1348" r="1.5000" /> 
<path d="M141.9242 304.0348 A0.7501 0.7501 0.0 0 0 141.1742 304.7848" />
<path d="M94.6912 404.9349
L91.6850 404.9349
" />
<path d="M268.1850 449.6349 A3.0000 3.0000 0.0 0 0 271.1850 446.6349" />
<circle cx="193.3242" cy="100.7348" r="1.5000" /> 
<path d="M143.9350 399.0349
L141.9350 399.0349
" />
<path d="M94.6804 309.9348
L91.6742 309.9348
" />
<path d="M124.9242 199.6348
L147.4242 199.6348
" />
<circle cx="193.3242" cy="185.1348" r="1.5000" /> 
<path d="M94.6912 412.9349
L91.6850 412.9349
" />
<path d="M4.1742 190.4348 A3.0001 3.0001 0.0 0 0 1.1742 193.4348" />
<path d="M271.1850 446.6349
L271.1850 418.0349
" />
<path d="M97.7932 412.9349 A2.6906 2.6906 0.0 0 0 98.0492 412.9201" />
<path d="M130.6850 382.0349 A0.5000 0.5000 0.0 0 0 131.1850 381.5349" />
<path d="M126.6742 302.2848 A1.7500 1.7500 0.0 0 0 128.4242 304.0348" />
<path d="M31.9242 199.6348 A1.3999 1.3999 0.0 0 0 33.3242 198.2348" />
<path d="M126.6850 397.2849 A1.7500 1.7500 0.0 0 0 128.4350 399.0349" />
<circle cx="36.2242" cy="100.7348" r="1.5000" /> 
<path d="M94.6804 317.9348
L91.6742 317.9348
" />
<path d="M265.0242 219.3958
L265.0242 201.4348
" />
<path d="M39.1242 280.1348
L39.1242 277.6348
" />
<path d="M97.0788 404.9349
L94.6912 404.9349
" />
<path d="M1.1850 412.0349 A3.0000 3.0000 0.0 0 0 4.1850 415.0349" />
<path d="M1.1742 187.4348 A3.0000 3.0000 0.0 0 0 4.1742 190.4348" />
<path d="M78.3208 192.9348 A2.8826 2.8826 0.0 0 0 76.1242 195.7348" />
<path d="M98.0384 317.9200
L140.3212 313.6288
" />
<path d="M263.2242 181.2348
L9.1242 181.2348
" />
<path d="M239.0242 280.1348
L239.0242 277.6348
" />
<path d="M263.2242 9.6348
L9.1242 9.6348
" />
<path d="M143.9242 304.0348
L141.9242 304.0348
" />
<path d="M271.1742 222.0348
L271.1742 193.4348
" />
<path d="M235.4208 192.9348
L236.8276 192.9348
" />
<path d="M130.6742 287.0348
L128.4242 287.0348
" />
<circle cx="36.2242" cy="185.1348" r="1.5000" /> 
<path d="M263.2242 181.2348 A1.7999 1.7999 0.0 0 0 265.0242 179.4348" />
<path d="M126.6850 397.2849
L126.6850 383.7849
" />
<path d="M268.1850 449.6349
L4.1850 449.6349
" />
<path d="M76.1242 277.6348
L76.1242 280.1348
" />
<path d="M81.9242 195.7348
L81.9242 198.2348
" />
<path d="M233.2242 277.6348
L233.2242 280.1348
" />
<path d="M1.1742 92.4348 A3.0000 3.0000 0.0 0 0 4.1742 95.4348" />
<path d="M90.1742 316.4348 A1.5000 1.5000 0.0 0 0 91.6742 317.9348" />
<path d="M9.1242 199.6348
L31.9242 199.6348
" />
<path d="M81.9242 198.2348 A1.3999 1.3999 0.0 0 0 83.3242 199.6348" />
<path d="M7.3242 274.4348 A1.8001 1.8001 0.0 0 0 9.1242 276.2348" />
<path d="M271.1850 418.0349 A3.0002 3.0002 0.0 0 0 268.1850 415.0349" />
<path d="M7.3242 124.3958
L7.3242 106.4348
" />
<path d="M196.2242 195.7348 A2.8826 2.8826 0.0 0 0 194.0276 192.9348" />
<path d="M97.0788 404.9349 A2.9451 2.9451 0.0 0 0 97.3332 404.9191" />
<path d="M97.7824 317.9348 A2.6871 2.6871 0.0 0 0 98.0384 317.9200" />
<path d="M141.1850 381.5349 A0.5000 0.5000 0.0 0 0 141.6850 382.0349" />
<path d="M196.2242 198.2348 A1.3999 1.3999 0.0 0 0 197.6242 199.6348" />
<path d="M197.6242 276.2348
L231.8242 276.2348
" />
<path d="M131.1850 399.7849 A0.7500 0.7500 0.0 0 0 130.4350 399.0349" />
<path d="M130.6742 287.0348 A0.4999 0.4999 0.0 0 0 131.1742 286.5348" />
<path d="M131.1742 305.8848
L131.1742 304.7848
" />
<path d="M141.6850 415.0349
L268.1850 415.0349
" />
<path d="M1.1742 282.4348 A3.0000 3.0000 0.0 0 0 4.1742 285.4348" />
<path d="M239.0242 195.7348
L239.0242 198.2348
" />
<path d="M141.1742 286.5348 A0.5000 0.5000 0.0 0 0 141.6742 287.0348" />
<path d="M83.3242 199.6348
L124.9242 199.6348
" />
<path d="M196.2242 195.7348
L196.2242 198.2348
" />
<path d="M131.1850 380.9349
L131.1850 381.5349
" />
<circle cx="129.1850" cy="431.6349" r="0.9300" /> 
<path d="M235.4208 282.9348
L236.8276 282.9348
" />
<path d="M4.1742 285.4348 A3.0000 3.0000 0.0 0 0 1.1742 288.4348" />
<path d="M130.6742 0.4348
L141.6742 0.4348
" />
<path d="M40.5242 276.2348
L74.7242 276.2348
" />
<path d="M83.3242 276.2348 A1.4002 1.4002 0.0 0 0 81.9242 277.6348" />
<path d="M90.1742 316.4348
L90.1742 311.4348
" />
<path d="M4.1742 0.4348
L130.6742 0.4348
" />
<path d="M78.3208 282.9348
L79.7276 282.9348
" />
<path d="M97.7824 317.9348
L94.6804 317.9348
" />
<path d="M271.1850 383.4349 A3.0000 3.0000 0.0 0 0 268.1850 380.4349" />
<path d="M190.4242 277.6348 A1.4001 1.4001 0.0 0 0 189.0242 276.2348" />
<path d="M1.1850 412.0349
L1.1850 383.4349
" />
<path d="M140.3320 408.6289 A1.1281 1.1281 0.0 0 0 141.1850 407.5349" />
<path d="M239.0242 195.7348 A2.8826 2.8826 0.0 0 0 236.8276 192.9348" />
<path d="M239.0242 198.2348 A1.3999 1.3999 0.0 0 0 240.4242 199.6348" />
<path d="M130.6742 0.4348
L141.6742 0.4348
" />
<path d="M9.1242 104.6348 A1.8000 1.8000 0.0 0 0 7.3242 106.4348" />
<path d="M240.4242 276.2348 A1.4001 1.4001 0.0 0 0 239.0242 277.6348" />
<path d="M74.7242 199.6348 A1.3998 1.3998 0.0 0 0 76.1242 198.2348" />
<path d="M235.4208 192.9348 A2.8826 2.8826 0.0 0 0 233.2242 195.7348" />
<circle cx="79.0242" cy="185.1348" r="1.5000" /> 
<path d="M81.9242 280.1348
L81.9242 277.6348
" />
<path d="M192.6208 282.9348
L194.0276 282.9348
" />
<path d="M141.6850 380.4349 A0.5000 0.5000 0.0 0 0 141.1850 380.9349" />
<path d="M4.1742 95.4348 A3.0001 3.0001 0.0 0 0 1.1742 98.4348" />
<path d="M141.1850 399.7849
L141.1850 407.5349
" />
<path d="M268.1742 380.4348 A2.9999 2.9999 0.0 0 0 271.1742 377.4348" />
<path d="M7.3242 126.6738
L7.3242 179.4350
" />
<path d="M91.6850 404.9349 A1.5000 1.5000 0.0 0 0 90.1850 406.4349" />
<path d="M147.4242 199.6348
L189.0242 199.6348
" />
<path d="M130.4350 399.0349
L128.4350 399.0349
" />
<path d="M271.1742 377.4348
L271.1742 288.4348
" />
<path d="M4.1742 0.4348
L130.6742 0.4348
" />
<path d="M130.6873 401.5912
L97.3332 404.9191
" />
<path d="M271.1742 288.4348 A3.0000 3.0000 0.0 0 0 268.1742 285.4348" />
<path d="M271.1742 92.4348
L271.1742 32.0348
" />
<path d="M76.1242 277.6348 A1.4001 1.4001 0.0 0 0 74.7242 276.2348" />
<path d="M194.0276 282.9348 A2.8830 2.8830 0.0 0 0 196.2242 280.1348" />
<path d="M78.3208 192.9348
L79.7276 192.9348
" />
<circle cx="129.1850" cy="418.6349" r="0.9300" /> 
<path d="M240.4242 276.2348
L263.2242 276.2348
" />
<path d="M4.1742 285.4348
L268.1742 285.4348
" />
<path d="M91.6742 309.9348 A1.5001 1.5001 0.0 0 0 90.1742 311.4348" />
<path d="M128.4242 287.0348 A1.7501 1.7501 0.0 0 0 126.6742 288.7848" />
<path d="M268.1742 380.4348
L4.1742 380.4348
" />
<path d="M192.6208 192.9348
L194.0276 192.9348
" />
<path d="M39.1242 195.7348 A2.8829 2.8829 0.0 0 0 36.9276 192.9348" />
<path d="M233.2242 198.2348
L233.2242 195.7348
" />
<path d="M1.1742 187.4348
L1.1742 98.4348
" />
<path d="M130.4242 304.0348
L128.4242 304.0348
" />
<path d="M268.1742 95.4348 A2.9999 2.9999 0.0 0 0 271.1742 92.4348" />
<path d="M7.3242 179.4348 A1.8001 1.8001 0.0 0 0 9.1242 181.2348" />
<path d="M98.0492 412.9201
L140.3320 408.6289
" />
<path d="M145.6850 383.7849
L145.6850 397.2849
" />
<path d="M40.5242 199.6348
L74.7242 199.6348
" />
<path d="M192.6208 192.9348 A2.8826 2.8826 0.0 0 0 190.4242 195.7348" />
<path d="M143.9242 304.0348 A1.7499 1.7499 0.0 0 0 145.6742 302.2848" />
<path d="M263.2242 86.2348 A1.7999 1.7999 0.0 0 0 265.0242 84.4348" />
<circle cx="236.1242" cy="100.7348" r="1.5000" /> 
<path d="M131.1850 380.9349 A0.5000 0.5000 0.0 0 0 130.6850 380.4349" />
<path d="M271.1850 383.4349
L271.1850 412.0349
" />
<path d="M145.6850 383.7849 A1.7500 1.7500 0.0 0 0 143.9350 382.0349" />
<path d="M263.2242 199.6348
L240.4242 199.6348
" />
<path d="M265.0242 126.6738
L265.0242 179.4336
" />
<path d="M4.1850 380.4349 A3.0000 3.0000 0.0 0 0 1.1850 383.4349" />
<path d="M141.6742 0.4348
L268.1742 0.4348
" />
<path d="M97.0680 309.9348
L94.6804 309.9348
" />
<path d="M7.3242 221.6738
L7.3242 274.4350
" />
<path d="M35.5208 192.9348 A2.8828 2.8828 0.0 0 0 33.3242 195.7348" />
<path d="M97.0680 309.9348 A2.9461 2.9461 0.0 0 0 97.3224 309.9190" />
<path d="M7.3242 219.3958
L7.3242 201.4348
" />
<path d="M33.3242 277.6348
L33.3242 280.1348
" />
<path d="M35.5208 192.9348
L36.9276 192.9348
" />
<path d="M9.1242 199.6348 A1.8000 1.8000 0.0 0 0 7.3242 201.4348" />
<path d="M7.3242 84.4348 A1.8000 1.8000 0.0 0 0 9.1242 86.2348" />
</g>
<g style="fill:#000000; fill-opacity:0.0; 
stroke:#000000; stroke-width:0.0100; stroke-opacity:1; 
stroke-linecap:round; stroke-linejoin:round;">
<path d="M130.6742 285.4348
L4.1742 285.4348
" />
</g>
<g style="fill:#000000; fill-opacity:0.0; 
stroke:#000000; stroke-width:0.0010; stroke-opacity:1; 
stroke-linecap:round; stroke-linejoin:round;">
<path d="M145.6742 288.7848 A1.7500 1.7500 0.0 0 0 143.9242 287.0348" />
<path d="M90.1850 411.4349
L90.1850 406.4349
" />
<path d="M4.1742 190.4348
L268.1742 190.4348
" />
<path d="M141.1742 304.7848
L141.1742 312.5348
" />
<path d="M271.1742 187.4348
L271.1742 127.0348
" />
<path d="M197.6242 199.6348
L231.8242 199.6348
" />
<path d="M36.9276 282.9348 A2.8829 2.8829 0.0 0 0 39.1242 280.1348" />
<path d="M141.6742 285.4348 A0.5001 0.5001 0.0 0 0 141.1742 285.9348" />
<path d="M1.1742 317.0348
L1.1742 288.4348
" />
<path d="M268.1742 285.4348 A2.9999 2.9999 0.0 0 0 271.1742 282.4348" />
<path d="M143.9350 399.0349 A1.7500 1.7500 0.0 0 0 145.6850 397.2849" />
<path d="M265.0242 84.4348
L265.0242 11.4348
" />
<path d="M265.0242 106.4348 A1.8003 1.8003 0.0 0 0 263.2242 104.6348" />
<path d="M128.4350 382.0349 A1.7500 1.7500 0.0 0 0 126.6850 383.7849" />
<path d="M271.1742 282.4348
L271.1742 222.0348
" />
<path d="M76.1242 198.2348
L76.1242 195.7348
" />
<path d="M231.8242 199.6348 A1.3999 1.3999 0.0 0 0 233.2242 198.2348" />
<path d="M97.7932 412.9349
L94.6912 412.9349
" />
<path d="M4.1850 415.0349
L268.1850 415.0349
" />
<path d="M131.1850 400.8849
L131.1850 399.7849
" />
<path d="M9.1242 276.2348
L31.9242 276.2348
" />
<path d="M130.6764 306.5911
L97.3224 309.9190
" />
<path d="M265.0242 201.4348 A1.8001 1.8001 0.0 0 0 263.2242 199.6348" />
<path d="M102.5905 69.9098 A0.3001 0.3001 0.0 0 0 102.2905 69.6098" />
<path d="M222.4405 69.6098 A0.3000 0.3000 0.0 0 0 222.1405 69.9098" />
<path d="M143.0717 25.9598
L143.0717 12.7598
" />
<path d="M183.2530 69.6098
L170.0530 69.6098
" />
<path d="M30.8530 50.5598
L17.6530 50.5598
" />
<path d="M235.9405 69.9098 A0.3001 0.3001 0.0 0 0 235.6405 69.6098" />
<path d="M131.1655 69.9098 A0.3001 0.3001 0.0 0 0 130.8655 69.6098" />
<path d="M205.7717 64.3598
L218.9717 64.3598
" />
<path d="M254.6905 45.3098 A0.2999 0.2999 0.0 0 0 254.9905 45.0098" />
<path d="M205.7717 50.5598 A0.3000 0.3000 0.0 0 0 205.4717 50.8598" />
<path d="M171.3467 45.3098 A0.3000 0.3000 0.0 0 0 171.6467 45.0098" />
<path d="M26.0905 31.5098
L12.8905 31.5098
" />
<path d="M88.7905 69.9098
L88.7905 83.1098
" />
<path d="M42.7592 12.4598
L29.5592 12.4598
" />
<path d="M196.2467 45.3098
L209.4467 45.3098
" />
<path d="M229.5842 26.2598
L242.7842 26.2598
" />
<path d="M102.5905 83.1098
L102.5905 69.9098
" />
<path d="M49.9030 69.6098
L36.7030 69.6098
" />
<path d="M66.8717 31.8098 A0.2999 0.2999 0.0 0 0 66.5717 31.5098" />
<path d="M108.4540 29.0515 A0.5715 0.5715 0.0 0 0 107.8825 29.6230" />
<path d="M241.1905 45.0098 A0.3002 0.3002 0.0 0 0 241.4905 45.3098" />
<path d="M235.9405 83.1098
L235.9405 69.9098
" />
<path d="M88.7905 83.1098 A0.3002 0.3002 0.0 0 0 89.0905 83.4098" />
<path d="M153.3842 12.4598 A0.3000 0.3000 0.0 0 0 153.0842 12.7598" />
<path d="M117.4315 48.3639 A0.5716 0.5716 0.0 0 0 116.8600 47.7924" />
<path d="M248.3342 25.9598 A0.3002 0.3002 0.0 0 0 248.6342 26.2598" />
<path d="M105.7592 26.2598
L118.9592 26.2598
" />
<path d="M210.2342 12.7598
L210.2342 25.9598
" />
<path d="M167.3717 50.8598
L167.3717 64.0598
" />
<path d="M235.6405 83.4098 A0.2999 0.2999 0.0 0 0 235.9405 83.1098" />
<path d="M131.1655 83.1098
L131.1655 69.9098
" />
<path d="M72.4217 45.3098
L85.6217 45.3098
" />
<path d="M86.4092 25.9598 A0.3001 0.3001 0.0 0 0 86.7092 26.2598" />
<path d="M212.1280 69.9098 A0.3001 0.3001 0.0 0 0 211.8280 69.6098" />
<path d="M154.9780 83.1098
L154.9780 69.9098
" />
<path d="M26.0905 45.3098 A0.3001 0.3001 0.0 0 0 26.3905 45.0098" />
<path d="M172.1342 25.9598 A0.3001 0.3001 0.0 0 0 172.4342 26.2598" />
<path d="M80.8592 12.4598
L67.6592 12.4598
" />
<path d="M26.3905 45.0098
L26.3905 31.8098
" />
<path d="M262.1342 25.9598
L262.1342 12.7598
" />
<path d="M129.2717 12.7598
L129.2717 25.9598
" />
<path d="M47.5217 45.3098 A0.3000 0.3000 0.0 0 0 47.8217 45.0098" />
<path d="M66.5717 31.5098
L53.3717 31.5098
" />
<path d="M10.5092 26.2598
L23.7092 26.2598
" />
<path d="M259.7530 50.8598 A0.3001 0.3001 0.0 0 0 259.4530 50.5598" />
<path d="M29.5592 12.4598 A0.3000 0.3000 0.0 0 0 29.2592 12.7598" />
<path d="M191.1842 12.7598
L191.1842 25.9598
" />
<path d="M162.1217 50.8598 A0.2999 0.2999 0.0 0 0 161.8217 50.5598" />
<path d="M29.2592 12.7598
L29.2592 25.9598
" />
<path d="M254.9905 31.8098 A0.3001 0.3001 0.0 0 0 254.6905 31.5098" />
<path d="M31.1530 50.8598 A0.3001 0.3001 0.0 0 0 30.8530 50.5598" />
<path d="M243.0842 12.7598 A0.2999 0.2999 0.0 0 0 242.7842 12.4598" />
<path d="M245.9530 50.8598
L245.9530 64.0598
" />
<path d="M36.4030 83.1098 A0.3002 0.3002 0.0 0 0 36.7030 83.4098" />
<path d="M259.4530 69.6098
L246.2530 69.6098
" />
<path d="M107.8825 47.2209 A0.5716 0.5716 0.0 0 0 108.4540 47.7924" />
<path d="M130.8655 69.6098
L117.6655 69.6098
" />
<path d="M176.8967 45.0098 A0.3001 0.3001 0.0 0 0 177.1967 45.3098" />
<path d="M171.3467 31.5098
L158.1467 31.5098
" />
<path d="M180.8717 50.5598
L167.6717 50.5598
" />
<path d="M167.6717 50.5598 A0.3000 0.3000 0.0 0 0 167.3717 50.8598" />
<path d="M24.0092 25.9598
L24.0092 12.7598
" />
<path d="M86.7092 12.4598 A0.3000 0.3000 0.0 0 0 86.4092 12.7598" />
<path d="M12.8905 31.5098 A0.2999 0.2999 0.0 0 0 12.5905 31.8098" />
<path d="M36.7030 69.6098 A0.3000 0.3000 0.0 0 0 36.4030 69.9098" />
<path d="M191.4842 26.2598
L204.6842 26.2598
" />
<path d="M100.6967 50.8598
L100.6967 64.0598
" />
<path d="M172.4342 12.4598 A0.3000 0.3000 0.0 0 0 172.1342 12.7598" />
<path d="M157.8467 45.0098 A0.3001 0.3001 0.0 0 0 158.1467 45.3098" />
<path d="M142.7717 26.2598 A0.3000 0.3000 0.0 0 0 143.0717 25.9598" />
<path d="M72.1217 45.0098 A0.3001 0.3001 0.0 0 0 72.4217 45.3098" />
<path d="M53.3717 31.5098 A0.3000 0.3000 0.0 0 0 53.0717 31.8098" />
<path d="M100.2092 12.7598 A0.2999 0.2999 0.0 0 0 99.9092 12.4598" />
<path d="M119.2592 25.9598
L119.2592 12.7598
" />
<path d="M185.6342 12.4598
L172.4342 12.4598
" />
<path d="M47.8217 45.0098
L47.8217 31.8098
" />
<path d="M81.6467 50.8598
L81.6467 64.0598
" />
<path d="M177.1967 31.5098 A0.3000 0.3000 0.0 0 0 176.8967 31.8098" />
<path d="M91.4717 45.3098
L104.6717 45.3098
" />
<path d="M205.4717 64.0598 A0.3001 0.3001 0.0 0 0 205.7717 64.3598" />
<path d="M153.0842 25.9598 A0.3001 0.3001 0.0 0 0 153.3842 26.2598" />
<path d="M246.2530 50.5598 A0.3000 0.3000 0.0 0 0 245.9530 50.8598" />
<path d="M251.5042 26.2598
L251.5042 27.2398
" />
<path d="M102.2905 69.6098
L89.0905 69.6098
" />
<path d="M49.9030 83.4098 A0.2999 0.2999 0.0 0 0 50.2030 83.1098" />
<path d="M99.9092 26.2598 A0.3000 0.3000 0.0 0 0 100.2092 25.9598" />
<path d="M183.5530 69.9098 A0.3001 0.3001 0.0 0 0 183.2530 69.6098" />
<path d="M172.4342 26.2598
L185.6342 26.2598
" />
<path d="M114.4967 50.8598 A0.2999 0.2999 0.0 0 0 114.1967 50.5598" />
<path d="M209.4467 31.5098
L196.2467 31.5098
" />
<path d="M153.3842 26.2598
L166.5842 26.2598
" />
<path d="M74.0155 69.9098 A0.3001 0.3001 0.0 0 0 73.7155 69.6098" />
<path d="M204.9842 25.9598
L204.9842 12.7598
" />
<path d="M62.8967 64.3598
L76.0967 64.3598
" />
<path d="M154.9370 29.6230
L154.9370 47.2209
" />
<path d="M43.5467 50.8598
L43.5467 64.0598
" />
<path d="M118.9592 12.4598
L105.7592 12.4598
" />
<path d="M215.2967 45.3098
L228.4967 45.3098
" />
<path d="M190.6967 45.0098
L190.6967 31.8098
" />
<path d="M29.5592 26.2598
L42.7592 26.2598
" />
<path d="M154.6780 83.4098 A0.2999 0.2999 0.0 0 0 154.9780 83.1098" />
<path d="M170.0530 69.6098 A0.3000 0.3000 0.0 0 0 169.7530 69.9098" />
<path d="M12.8905 83.4098
L26.0905 83.4098
" />
<path d="M81.6467 64.0598 A0.3001 0.3001 0.0 0 0 81.9467 64.3598" />
<path d="M17.6530 50.5598 A0.2999 0.2999 0.0 0 0 17.3530 50.8598" />
<path d="M186.4217 50.8598
L186.4217 64.0598
" />
<path d="M60.2155 83.1098 A0.3002 0.3002 0.0 0 0 60.5155 83.4098" />
<path d="M262.1342 12.7598 A0.2999 0.2999 0.0 0 0 261.8342 12.4598" />
<path d="M248.3342 12.7598
L248.3342 25.9598
" />
<path d="M259.0042 12.4598
L261.8342 12.4598
" />
<path d="M171.6467 45.0098
L171.6467 31.8098
" />
<path d="M10.5092 12.4598 A0.3000 0.3000 0.0 0 0 10.2092 12.7598" />
<path d="M12.5905 83.1098 A0.3000 0.3000 0.0 0 0 12.8905 83.4098" />
<path d="M34.0217 31.8098
L34.0217 45.0098
" />
<path d="M198.3280 69.9098
L198.3280 83.1098
" />
<path d="M219.2717 50.8598 A0.2999 0.2999 0.0 0 0 218.9717 50.5598" />
<path d="M241.1905 31.8098
L241.1905 45.0098
" />
<path d="M95.4467 64.0598
L95.4467 50.8598
" />
<path d="M228.4967 45.3098 A0.3000 0.3000 0.0 0 0 228.7967 45.0098" />
<path d="M60.5155 83.4098
L73.7155 83.4098
" />
<path d="M53.0717 45.0098 A0.3001 0.3001 0.0 0 0 53.3717 45.3098" />
<path d="M154.9780 69.9098 A0.3001 0.3001 0.0 0 0 154.6780 69.6098" />
<path d="M259.4530 50.5598
L246.2530 50.5598
" />
<path d="M248.6342 12.4598 A0.3001 0.3001 0.0 0 0 248.3342 12.7598" />
<path d="M85.9217 45.0098
L85.9217 31.8098
" />
<path d="M114.4967 64.0598
L114.4967 50.8598
" />
<path d="M129.2717 25.9598 A0.3001 0.3001 0.0 0 0 129.5717 26.2598" />
<path d="M100.9967 50.5598 A0.3000 0.3000 0.0 0 0 100.6967 50.8598" />
<path d="M10.2092 25.9598 A0.3001 0.3001 0.0 0 0 10.5092 26.2598" />
<path d="M57.3467 64.0598
L57.3467 50.8598
" />
<path d="M61.8092 12.4598
L48.6092 12.4598
" />
<path d="M161.8217 50.5598
L148.6217 50.5598
" />
<path d="M222.1405 69.9098
L222.1405 83.1098
" />
<path d="M42.7592 26.2598 A0.3000 0.3000 0.0 0 0 43.0592 25.9598" />
<path d="M181.1717 50.8598 A0.2999 0.2999 0.0 0 0 180.8717 50.5598" />
<path d="M76.0967 50.5598
L62.8967 50.5598
" />
<path d="M211.8280 69.6098
L198.6280 69.6098
" />
<path d="M12.8905 69.6098 A0.2999 0.2999 0.0 0 0 12.5905 69.9098" />
<path d="M117.3655 83.1098 A0.3002 0.3002 0.0 0 0 117.6655 83.4098" />
<path d="M157.8467 31.8098
L157.8467 45.0098
" />
<path d="M91.4717 31.5098 A0.3000 0.3000 0.0 0 0 91.1717 31.8098" />
<path d="M200.2217 50.8598 A0.2999 0.2999 0.0 0 0 199.9217 50.5598" />
<path d="M117.4315 66.1284 A0.5712 0.5712 0.0 0 0 118.0030 66.6999" />
<path d="M89.0905 83.4098
L102.2905 83.4098
" />
<path d="M238.0217 50.5598
L224.8217 50.5598
" />
<path d="M248.6342 26.2598
L251.5042 26.2598
" />
<path d="M251.5042 27.2398
L259.0042 27.2398
" />
<path d="M61.8092 26.2598 A0.3000 0.3000 0.0 0 0 62.1092 25.9598" />
<path d="M169.7530 83.1098 A0.3002 0.3002 0.0 0 0 170.0530 83.4098" />
<path d="M243.0842 25.9598
L243.0842 12.7598
" />
<path d="M117.6655 83.4098
L130.8655 83.4098
" />
<path d="M148.6217 64.3598
L161.8217 64.3598
" />
<path d="M29.2592 25.9598 A0.3001 0.3001 0.0 0 0 29.5592 26.2598" />
<path d="M166.8842 12.7598 A0.2999 0.2999 0.0 0 0 166.5842 12.4598" />
<path d="M199.9217 64.3598 A0.3000 0.3000 0.0 0 0 200.2217 64.0598" />
<path d="M81.9467 50.5598 A0.3000 0.3000 0.0 0 0 81.6467 50.8598" />
<path d="M259.0042 27.2398
L259.0042 26.2598
" />
<path d="M31.1530 64.0598
L31.1530 50.8598
" />
<path d="M57.3467 50.8598 A0.2999 0.2999 0.0 0 0 57.0467 50.5598" />
<path d="M48.6092 12.4598 A0.3000 0.3000 0.0 0 0 48.3092 12.7598" />
<path d="M26.0905 83.4098 A0.3001 0.3001 0.0 0 0 26.3905 83.1098" />
<path d="M246.2530 83.4098
L259.4530 83.4098
" />
<path d="M36.4030 69.9098
L36.4030 83.1098
" />
<path d="M259.7530 69.9098 A0.3001 0.3001 0.0 0 0 259.4530 69.6098" />
<path d="M86.4092 12.7598
L86.4092 25.9598
" />
<path d="M104.6717 31.5098
L91.4717 31.5098
" />
<path d="M191.1842 25.9598 A0.3001 0.3001 0.0 0 0 191.4842 26.2598" />
<path d="M73.7155 69.6098
L60.5155 69.6098
" />
<path d="M145.9595 47.7924 A0.5714 0.5714 0.0 0 0 145.3880 48.3639" />
<path d="M43.8467 64.3598
L57.0467 64.3598
" />
<path d="M95.1467 64.3598 A0.3000 0.3000 0.0 0 0 95.4467 64.0598" />
<path d="M259.4530 83.4098 A0.2999 0.2999 0.0 0 0 259.7530 83.1098" />
<path d="M47.5217 31.5098
L34.3217 31.5098
" />
<path d="M241.4905 31.5098 A0.3000 0.3000 0.0 0 0 241.1905 31.8098" />
<path d="M24.0092 12.7598 A0.2999 0.2999 0.0 0 0 23.7092 12.4598" />
<path d="M209.7467 31.8098 A0.2999 0.2999 0.0 0 0 209.4467 31.5098" />
<path d="M251.5042 11.8198
L259.0042 11.8198
" />
<path d="M62.5967 50.8598
L62.5967 64.0598
" />
<path d="M108.4540 29.0515
L154.3655 29.0515
" />
<path d="M167.3717 64.0598 A0.3001 0.3001 0.0 0 0 167.6717 64.3598" />
<path d="M223.7342 26.2598 A0.3000 0.3000 0.0 0 0 224.0342 25.9598" />
<path d="M142.7717 12.4598
L129.5717 12.4598
" />
<path d="M105.7592 12.4598 A0.3000 0.3000 0.0 0 0 105.4592 12.7598" />
<path d="M99.9092 12.4598
L86.7092 12.4598
" />
<path d="M180.8717 64.3598 A0.3000 0.3000 0.0 0 0 181.1717 64.0598" />
<path d="M212.1280 83.1098
L212.1280 69.9098
" />
<path d="M100.6967 64.0598 A0.3001 0.3001 0.0 0 0 100.9967 64.3598" />
<path d="M117.4315 66.1284
L117.4315 48.3639
" />
<path d="M12.5905 31.8098
L12.5905 45.0098
" />
<path d="M43.0592 12.7598 A0.2999 0.2999 0.0 0 0 42.7592 12.4598" />
<path d="M141.1780 83.1098 A0.3002 0.3002 0.0 0 0 141.4780 83.4098" />
<path d="M105.4592 25.9598 A0.3001 0.3001 0.0 0 0 105.7592 26.2598" />
<path d="M185.6342 26.2598 A0.3000 0.3000 0.0 0 0 185.9342 25.9598" />
<path d="M228.7967 31.8098 A0.2999 0.2999 0.0 0 0 228.4967 31.5098" />
<path d="M67.3592 12.7598
L67.3592 25.9598
" />
<path d="M143.0717 12.7598 A0.2999 0.2999 0.0 0 0 142.7717 12.4598" />
<path d="M72.4217 31.5098 A0.3000 0.3000 0.0 0 0 72.1217 31.8098" />
<path d="M153.0842 12.7598
L153.0842 25.9598
" />
<path d="M47.8217 31.8098 A0.2999 0.2999 0.0 0 0 47.5217 31.5098" />
<path d="M85.6217 45.3098 A0.3000 0.3000 0.0 0 0 85.9217 45.0098" />
<path d="M116.8600 47.7924
L108.4540 47.7924
" />
<path d="M67.6592 12.4598 A0.3000 0.3000 0.0 0 0 67.3592 12.7598" />
<path d="M204.6842 26.2598 A0.3000 0.3000 0.0 0 0 204.9842 25.9598" />
<path d="M229.2842 12.7598
L229.2842 25.9598
" />
<path d="M73.7155 83.4098 A0.2999 0.2999 0.0 0 0 74.0155 83.1098" />
<path d="M154.6780 69.6098
L141.4780 69.6098
" />
<path d="M228.7967 45.0098
L228.7967 31.8098
" />
<path d="M204.6842 12.4598
L191.4842 12.4598
" />
<path d="M224.5217 64.0598 A0.3001 0.3001 0.0 0 0 224.8217 64.3598" />
<path d="M214.9967 45.0098 A0.3001 0.3001 0.0 0 0 215.2967 45.3098" />
<path d="M26.0905 69.6098
L12.8905 69.6098
" />
<path d="M259.0042 11.8198
L259.0042 12.4598
" />
<path d="M43.8467 50.5598 A0.3000 0.3000 0.0 0 0 43.5467 50.8598" />
<path d="M43.0592 25.9598
L43.0592 12.7598
" />
<path d="M246.2530 69.6098 A0.3000 0.3000 0.0 0 0 245.9530 69.9098" />
<path d="M158.1467 31.5098 A0.3000 0.3000 0.0 0 0 157.8467 31.8098" />
<path d="M210.5342 12.4598 A0.3000 0.3000 0.0 0 0 210.2342 12.7598" />
<path d="M67.3592 25.9598 A0.3001 0.3001 0.0 0 0 67.6592 26.2598" />
<path d="M62.1092 12.7598 A0.2999 0.2999 0.0 0 0 61.8092 12.4598" />
<path d="M85.9217 31.8098 A0.2999 0.2999 0.0 0 0 85.6217 31.5098" />
<path d="M259.0042 26.2598
L261.8342 26.2598
" />
<path d="M223.7342 12.4598
L210.5342 12.4598
" />
<path d="M261.8342 26.2598 A0.3000 0.3000 0.0 0 0 262.1342 25.9598" />
<path d="M224.0342 25.9598
L224.0342 12.7598
" />
<path d="M161.8217 64.3598 A0.3000 0.3000 0.0 0 0 162.1217 64.0598" />
<path d="M224.0342 12.7598 A0.2999 0.2999 0.0 0 0 223.7342 12.4598" />
<path d="M34.3217 45.3098
L47.5217 45.3098
" />
<path d="M43.5467 64.0598 A0.3001 0.3001 0.0 0 0 43.8467 64.3598" />
<path d="M183.5530 83.1098
L183.5530 69.9098
" />
<path d="M185.9342 12.7598 A0.2999 0.2999 0.0 0 0 185.6342 12.4598" />
<path d="M104.6717 45.3098 A0.3000 0.3000 0.0 0 0 104.9717 45.0098" />
<path d="M76.3967 50.8598 A0.2999 0.2999 0.0 0 0 76.0967 50.5598" />
<path d="M229.5842 12.4598 A0.3000 0.3000 0.0 0 0 229.2842 12.7598" />
<path d="M241.4905 45.3098
L254.6905 45.3098
" />
<path d="M215.2967 31.5098 A0.3000 0.3000 0.0 0 0 214.9967 31.8098" />
<path d="M100.2092 25.9598
L100.2092 12.7598
" />
<path d="M17.3530 50.8598
L17.3530 64.0598
" />
<path d="M190.3967 31.5098
L177.1967 31.5098
" />
<path d="M91.1717 45.0098 A0.3001 0.3001 0.0 0 0 91.4717 45.3098" />
<path d="M198.6280 83.4098
L211.8280 83.4098
" />
<path d="M162.1217 64.0598
L162.1217 50.8598
" />
<path d="M66.5717 45.3098 A0.3000 0.3000 0.0 0 0 66.8717 45.0098" />
<path d="M148.3217 64.0598 A0.3001 0.3001 0.0 0 0 148.6217 64.3598" />
<path d="M222.1405 83.1098 A0.3002 0.3002 0.0 0 0 222.4405 83.4098" />
<path d="M183.2530 83.4098 A0.2999 0.2999 0.0 0 0 183.5530 83.1098" />
<path d="M118.9592 26.2598 A0.3000 0.3000 0.0 0 0 119.2592 25.9598" />
<path d="M238.0217 64.3598 A0.3000 0.3000 0.0 0 0 238.3217 64.0598" />
<path d="M67.6592 26.2598
L80.8592 26.2598
" />
<path d="M17.6530 64.3598
L30.8530 64.3598
" />
<path d="M245.9530 83.1098 A0.3002 0.3002 0.0 0 0 246.2530 83.4098" />
<path d="M254.9905 45.0098
L254.9905 31.8098
" />
<path d="M166.8842 25.9598
L166.8842 12.7598
" />
<path d="M177.1967 45.3098
L190.3967 45.3098
" />
<path d="M95.4467 50.8598 A0.2999 0.2999 0.0 0 0 95.1467 50.5598" />
<path d="M76.3967 64.0598
L76.3967 50.8598
" />
<path d="M209.4467 45.3098 A0.3000 0.3000 0.0 0 0 209.7467 45.0098" />
<path d="M176.8967 31.8098
L176.8967 45.0098
" />
<path d="M117.3655 69.9098
L117.3655 83.1098
" />
<path d="M50.2030 69.9098 A0.3001 0.3001 0.0 0 0 49.9030 69.6098" />
<path d="M23.7092 26.2598 A0.3000 0.3000 0.0 0 0 24.0092 25.9598" />
<path d="M105.4592 12.7598
L105.4592 25.9598
" />
<path d="M12.8905 45.3098
L26.0905 45.3098
" />
<path d="M95.1467 50.5598
L81.9467 50.5598
" />
<path d="M210.5342 26.2598
L223.7342 26.2598
" />
<path d="M245.9530 69.9098
L245.9530 83.1098
" />
<path d="M199.9217 50.5598
L186.7217 50.5598
" />
<path d="M204.9842 12.7598 A0.2999 0.2999 0.0 0 0 204.6842 12.4598" />
<path d="M130.8655 83.4098 A0.2999 0.2999 0.0 0 0 131.1655 83.1098" />
<path d="M48.3092 25.9598 A0.3001 0.3001 0.0 0 0 48.6092 26.2598" />
<path d="M195.9467 31.8098
L195.9467 45.0098
" />
<path d="M246.2530 64.3598
L259.4530 64.3598
" />
<path d="M81.1592 12.7598 A0.2999 0.2999 0.0 0 0 80.8592 12.4598" />
<path d="M186.7217 64.3598
L199.9217 64.3598
" />
<path d="M170.0530 83.4098
L183.2530 83.4098
" />
<path d="M200.2217 64.0598
L200.2217 50.8598
" />
<path d="M186.4217 64.0598 A0.3001 0.3001 0.0 0 0 186.7217 64.3598" />
<path d="M154.3655 47.7924 A0.5713 0.5713 0.0 0 0 154.9370 47.2209" />
<path d="M219.2717 64.0598
L219.2717 50.8598
" />
<path d="M210.2342 25.9598 A0.3001 0.3001 0.0 0 0 210.5342 26.2598" />
<path d="M248.6342 12.4598
L251.5042 12.4598
" />
<path d="M10.2092 12.7598
L10.2092 25.9598
" />
<path d="M117.6655 69.6098 A0.3000 0.3000 0.0 0 0 117.3655 69.9098" />
<path d="M214.9967 31.8098
L214.9967 45.0098
" />
<path d="M190.3967 45.3098 A0.3000 0.3000 0.0 0 0 190.6967 45.0098" />
<path d="M80.8592 26.2598 A0.3000 0.3000 0.0 0 0 81.1592 25.9598" />
<path d="M91.1717 31.8098
L91.1717 45.0098
" />
<path d="M26.3905 31.8098 A0.3000 0.3000 0.0 0 0 26.0905 31.5098" />
<path d="M158.1467 45.3098
L171.3467 45.3098
" />
<path d="M196.2467 31.5098 A0.3000 0.3000 0.0 0 0 195.9467 31.8098" />
<path d="M57.0467 64.3598 A0.3000 0.3000 0.0 0 0 57.3467 64.0598" />
<path d="M254.6905 31.5098
L241.4905 31.5098
" />
<path d="M185.9342 25.9598
L185.9342 12.7598
" />
<path d="M114.1967 50.5598
L100.9967 50.5598
" />
<path d="M100.9967 64.3598
L114.1967 64.3598
" />
<path d="M62.5967 64.0598 A0.3001 0.3001 0.0 0 0 62.8967 64.3598" />
<path d="M145.3880 48.3639
L145.3880 66.1284
" />
<path d="M154.9370 29.6230 A0.5717 0.5717 0.0 0 0 154.3655 29.0515" />
<path d="M205.4717 50.8598
L205.4717 64.0598
" />
<path d="M198.3280 83.1098 A0.3002 0.3002 0.0 0 0 198.6280 83.4098" />
<path d="M26.3905 83.1098
L26.3905 69.9098
" />
<path d="M76.0967 64.3598 A0.3000 0.3000 0.0 0 0 76.3967 64.0598" />
<path d="M48.6092 26.2598
L61.8092 26.2598
" />
<path d="M85.6217 31.5098
L72.4217 31.5098
" />
<path d="M167.6717 64.3598
L180.8717 64.3598
" />
<path d="M60.5155 69.6098 A0.3000 0.3000 0.0 0 0 60.2155 69.9098" />
<path d="M81.1592 25.9598
L81.1592 12.7598
" />
<path d="M144.8165 66.6999
L118.0030 66.6999
" />
<path d="M141.1780 69.9098
L141.1780 83.1098
" />
<path d="M171.6467 31.8098 A0.2999 0.2999 0.0 0 0 171.3467 31.5098" />
<path d="M66.8717 45.0098
L66.8717 31.8098
" />
<path d="M195.9467 45.0098 A0.3001 0.3001 0.0 0 0 196.2467 45.3098" />
<path d="M166.5842 12.4598
L153.3842 12.4598
" />
<path d="M228.4967 31.5098
L215.2967 31.5098
" />
<path d="M81.9467 64.3598
L95.1467 64.3598
" />
<path d="M191.4842 12.4598 A0.3000 0.3000 0.0 0 0 191.1842 12.7598" />
<path d="M72.1217 31.8098
L72.1217 45.0098
" />
<path d="M148.6217 50.5598 A0.3000 0.3000 0.0 0 0 148.3217 50.8598" />
<path d="M238.3217 64.0598
L238.3217 50.8598
" />
<path d="M211.8280 83.4098 A0.2999 0.2999 0.0 0 0 212.1280 83.1098" />
<path d="M74.0155 83.1098
L74.0155 69.9098
" />
<path d="M129.5717 26.2598
L142.7717 26.2598
" />
<path d="M12.5905 69.9098
L12.5905 83.1098
" />
<path d="M114.1967 64.3598 A0.3000 0.3000 0.0 0 0 114.4967 64.0598" />
<path d="M34.3217 31.5098 A0.3000 0.3000 0.0 0 0 34.0217 31.8098" />
<path d="M229.2842 25.9598 A0.3001 0.3001 0.0 0 0 229.5842 26.2598" />
<path d="M166.5842 26.2598 A0.3000 0.3000 0.0 0 0 166.8842 25.9598" />
<path d="M141.4780 69.6098 A0.3000 0.3000 0.0 0 0 141.1780 69.9098" />
<path d="M102.2905 83.4098 A0.2999 0.2999 0.0 0 0 102.5905 83.1098" />
<path d="M48.3092 12.7598
L48.3092 25.9598
" />
<path d="M181.1717 64.0598
L181.1717 50.8598
" />
<path d="M148.3217 50.8598
L148.3217 64.0598
" />
<path d="M259.7530 64.0598
L259.7530 50.8598
" />
<path d="M60.2155 69.9098
L60.2155 83.1098
" />
<path d="M23.7092 12.4598
L10.5092 12.4598
" />
<path d="M104.9717 31.8098 A0.2999 0.2999 0.0 0 0 104.6717 31.5098" />
<path d="M245.9530 64.0598 A0.3002 0.3002 0.0 0 0 246.2530 64.3598" />
<path d="M222.4405 83.4098
L235.6405 83.4098
" />
<path d="M198.6280 69.6098 A0.3000 0.3000 0.0 0 0 198.3280 69.9098" />
<path d="M224.8217 64.3598
L238.0217 64.3598
" />
<path d="M242.7842 26.2598 A0.3000 0.3000 0.0 0 0 243.0842 25.9598" />
<path d="M172.1342 12.7598
L172.1342 25.9598
" />
<path d="M218.9717 50.5598
L205.7717 50.5598
" />
<path d="M259.7530 83.1098
L259.7530 69.9098
" />
<path d="M86.7092 26.2598
L99.9092 26.2598
" />
<path d="M30.8530 64.3598 A0.2999 0.2999 0.0 0 0 31.1530 64.0598" />
<path d="M209.7467 45.0098
L209.7467 31.8098
" />
<path d="M218.9717 64.3598 A0.3000 0.3000 0.0 0 0 219.2717 64.0598" />
<path d="M259.4530 64.3598 A0.2999 0.2999 0.0 0 0 259.7530 64.0598" />
<path d="M144.8165 66.6999 A0.5718 0.5718 0.0 0 0 145.3880 66.1284" />
<path d="M224.5217 50.8598
L224.5217 64.0598
" />
<path d="M169.7530 69.9098
L169.7530 83.1098
" />
<path d="M242.7842 12.4598
L229.5842 12.4598
" />
<path d="M34.0217 45.0098 A0.3001 0.3001 0.0 0 0 34.3217 45.3098" />
<path d="M89.0905 69.6098 A0.3000 0.3000 0.0 0 0 88.7905 69.9098" />
<path d="M26.3905 69.9098 A0.3000 0.3000 0.0 0 0 26.0905 69.6098" />
<path d="M62.8967 50.5598 A0.3000 0.3000 0.0 0 0 62.5967 50.8598" />
<path d="M154.3655 47.7924
L145.9595 47.7924
" />
<path d="M119.2592 12.7598 A0.2999 0.2999 0.0 0 0 118.9592 12.4598" />
<path d="M104.9717 45.0098
L104.9717 31.8098
" />
<path d="M224.8217 50.5598 A0.3000 0.3000 0.0 0 0 224.5217 50.8598" />
<path d="M36.7030 83.4098
L49.9030 83.4098
" />
<path d="M141.4780 83.4098
L154.6780 83.4098
" />
<path d="M50.2030 83.1098
L50.2030 69.9098
" />
<path d="M186.7217 50.5598 A0.3000 0.3000 0.0 0 0 186.4217 50.8598" />
<path d="M190.6967 31.8098 A0.2999 0.2999 0.0 0 0 190.3967 31.5098" />
<path d="M235.6405 69.6098
L222.4405 69.6098
" />
<path d="M53.3717 45.3098
L66.5717 45.3098
" />
<path d="M17.3530 64.0598 A0.3000 0.3000 0.0 0 0 17.6530 64.3598" />
<path d="M53.0717 31.8098
L53.0717 45.0098
" />
<path d="M9.1242 9.6348 A1.8000 1.8000 0.0 0 0 7.3242 11.4348" />
<path d="M129.5717 12.4598 A0.3000 0.3000 0.0 0 0 129.2717 12.7598" />
<path d="M12.5905 45.0098 A0.3000 0.3000 0.0 0 0 12.8905 45.3098" />
<path d="M62.1092 25.9598
L62.1092 12.7598
" />
<path d="M251.5042 12.4598
L251.5042 11.8198
" />
<path d="M57.0467 50.5598
L43.8467 50.5598
" />
<path d="M107.8825 47.2209
L107.8825 29.6230
" />
<path d="M238.3217 50.8598 A0.2999 0.2999 0.0 0 0 238.0217 50.5598" />
<g >
</g>
<g >
</g>
<g >
</g>
</g> 
</svg>
